# xmcd
# 
# Track frame offsets:
#     150
#     19969
#     36169
#     48081
#     61060
#     80607
#     97618
#     116291
#     137893
#     151169
#     165965
#     181972
#     199378
#     213452
#     229222
#     241379
#     255258
# 
# Disc length: 3769
# 
# Revision: 5
# Processed by: cddbd v1.5.2PL0 Copyright (c) Steve Scherf et al.
# Submitted via: fre:ac v1.1beta1pre5
# 
DISCID=d20eb711
DTITLE=The Mavericks - The Collection
DYEAR=2003
DGENRE=Country
TTITLE0=Dance The Night Away
TTITLE1=All That Heaven Will Allow
TTITLE2=Hey Good Lookin'
TTITLE3=You'll Never Know
TTITLE4=All You Ever Do Is Bring Me Down
TTITLE5=I've Got This Feeling
TTITLE6=A Better Way
TTITLE7=From Hell To Paradise
TTITLE8=Something Stupid
TTITLE9=There Goes My Heart
TTITLE10=Things I Cannot Change
TTITLE11=What A Crying Shame
TTITLE12=I Don't Care If You Don't Love Me Anymore
TTITLE13=Volver, Volver
TTITLE14=Panatella
TTITLE15=She Does
TTITLE16=La Mucara
EXTD=CDDBSort:mavericks,collection - YEAR: 2003
EXTT0=
EXTT1=
EXTT2=
EXTT3=
EXTT4=
EXTT5=
EXTT6=
EXTT7=
EXTT8=
EXTT9=
EXTT10=
EXTT11=
EXTT12=
EXTT13=
EXTT14=
EXTT15=
EXTT16=
PLAYORDER=
